<?xml version="1.0" encoding="UTF-8" standalone="no"?>
<!DOCTYPE svg PUBLIC "-//W3C//DTD SVG 1.1//EN"
 "http://www.w3.org/Graphics/SVG/1.1/DTD/svg11.dtd">
<!-- Generated by graphviz version 2.40.1 (20161225.0304)
 -->
<!-- Title: dependencies Pages: 1 -->
<svg width="5545pt" height="284pt"
 viewBox="0.00 0.00 5545.00 284.00" xmlns="http://www.w3.org/2000/svg" xmlns:xlink="http://www.w3.org/1999/xlink">
<g id="graph0" class="graph" transform="scale(1 1) rotate(0) translate(4 280)">
<title>dependencies</title>
<polygon fill="#ffffff" stroke="transparent" points="-4,4 -4,-280 5541,-280 5541,4 -4,4"/>
<text text-anchor="start" x="2747.5091" y="-42.4" font-family="sans-serif" font-weight="bold" font-size="14.00" fill="#000000">Legend</text>
<polygon fill="#ffffb3" stroke="transparent" points="2534.5,-10 2534.5,-30 2554.5,-30 2554.5,-10 2534.5,-10"/>
<text text-anchor="start" x="2558.129" y="-15.4" font-family="sans-serif" font-size="14.00" fill="#000000"> &#160;Declarations</text>
<polygon fill="#8dd3c7" stroke="transparent" points="2647.5,-10 2647.5,-30 2667.5,-30 2667.5,-10 2647.5,-10"/>
<text text-anchor="start" x="2671.2251" y="-15.4" font-family="sans-serif" font-size="14.00" fill="#000000"> &#160;Module</text>
<polygon fill="#80b1d3" stroke="transparent" points="2733.5,-10 2733.5,-30 2753.5,-30 2753.5,-10 2733.5,-10"/>
<text text-anchor="start" x="2757.2812" y="-15.4" font-family="sans-serif" font-size="14.00" fill="#000000"> &#160;Bootstrap</text>
<polygon fill="#fdb462" stroke="transparent" points="2830.5,-10 2830.5,-30 2850.5,-30 2850.5,-10 2830.5,-10"/>
<text text-anchor="start" x="2854.1732" y="-15.4" font-family="sans-serif" font-size="14.00" fill="#000000"> &#160;Providers</text>
<polygon fill="#fb8072" stroke="transparent" points="2926.5,-10 2926.5,-30 2946.5,-30 2946.5,-10 2926.5,-10"/>
<text text-anchor="start" x="2950.2258" y="-15.4" font-family="sans-serif" font-size="14.00" fill="#000000"> &#160;Exports</text>
<g id="clust1" class="cluster">
<title>cluster_AppModule</title>
<polygon fill="none" stroke="#000000" stroke-dasharray="1,5" points="8,-70 8,-268 5529,-268 5529,-70 8,-70"/>
</g>
<g id="clust2" class="cluster">
<title>cluster_AppModule_declarations</title>
<polygon fill="none" stroke="#000000" points="2213,-78 2213,-130 5521,-130 5521,-78 2213,-78"/>
</g>
<g id="clust24" class="cluster">
<title>cluster_AppModule_imports</title>
<polygon fill="none" stroke="#000000" points="2065,-78 2065,-130 2205,-130 2205,-78 2065,-78"/>
</g>
<g id="clust26" class="cluster">
<title>cluster_AppModule_bootstrap</title>
<polygon fill="none" stroke="#000000" points="2906,-208 2906,-260 3030,-260 3030,-208 2906,-208"/>
</g>
<g id="clust27" class="cluster">
<title>cluster_AppModule_providers</title>
<polygon fill="none" stroke="#000000" points="16,-78 16,-130 2057,-130 2057,-78 16,-78"/>
</g>
<!-- AccountComponent -->
<g id="node1" class="node">
<title>AccountComponent</title>
<polygon fill="#ffffb3" stroke="#000000" points="5513.259,-122 5384.741,-122 5384.741,-86 5513.259,-86 5513.259,-122"/>
<text text-anchor="middle" x="5449" y="-99.8" font-family="Times,serif" font-size="14.00" fill="#000000">AccountComponent</text>
</g>
<!-- AppModule -->
<g id="node22" class="node">
<title>AppModule</title>
<polygon fill="#8dd3c7" stroke="#000000" points="3009.6571,-187 3006.6571,-191 2985.6571,-191 2982.6571,-187 2926.3429,-187 2926.3429,-151 3009.6571,-151 3009.6571,-187"/>
<text text-anchor="middle" x="2968" y="-164.8" font-family="Times,serif" font-size="14.00" fill="#000000">AppModule</text>
</g>
<!-- AccountComponent&#45;&gt;AppModule -->
<g id="edge1" class="edge">
<title>AccountComponent&#45;&gt;AppModule</title>
<path fill="none" stroke="#000000" d="M5449,-122.3802C5449,-146.2785 5449,-185 5449,-185 5449,-185 3019.763,-185 3019.763,-185"/>
<polygon fill="#000000" stroke="#000000" points="3019.7631,-181.5001 3009.763,-185 3019.763,-188.5001 3019.7631,-181.5001"/>
</g>
<!-- AnswerOrdersComponent -->
<g id="node2" class="node">
<title>AnswerOrdersComponent</title>
<polygon fill="#ffffb3" stroke="#000000" points="5366.4524,-122 5203.5476,-122 5203.5476,-86 5366.4524,-86 5366.4524,-122"/>
<text text-anchor="middle" x="5285" y="-99.8" font-family="Times,serif" font-size="14.00" fill="#000000">AnswerOrdersComponent</text>
</g>
<!-- AnswerOrdersComponent&#45;&gt;AppModule -->
<g id="edge2" class="edge">
<title>AnswerOrdersComponent&#45;&gt;AppModule</title>
<path fill="none" stroke="#000000" d="M5285,-122.3228C5285,-145.6602 5285,-183 5285,-183 5285,-183 3019.6951,-183 3019.6951,-183"/>
<polygon fill="#000000" stroke="#000000" points="3019.6951,-179.5001 3009.6951,-183 3019.6951,-186.5001 3019.6951,-179.5001"/>
</g>
<!-- AppComponent -->
<g id="node3" class="node">
<title>AppComponent</title>
<polygon fill="#ffffb3" stroke="#000000" points="5185.9399,-122 5080.0601,-122 5080.0601,-86 5185.9399,-86 5185.9399,-122"/>
<text text-anchor="middle" x="5133" y="-99.8" font-family="Times,serif" font-size="14.00" fill="#000000">AppComponent</text>
</g>
<!-- AppComponent&#45;&gt;AppModule -->
<g id="edge3" class="edge">
<title>AppComponent&#45;&gt;AppModule</title>
<path fill="none" stroke="#000000" d="M5133,-122.2479C5133,-145.0179 5133,-181 5133,-181 5133,-181 3019.7944,-181 3019.7944,-181"/>
<polygon fill="#000000" stroke="#000000" points="3019.7945,-177.5001 3009.7944,-181 3019.7944,-184.5001 3019.7945,-177.5001"/>
</g>
<!-- AutofocusDirective -->
<g id="node4" class="node">
<title>AutofocusDirective</title>
<polygon fill="#ffffb3" stroke="#000000" points="5062.4004,-122 4935.5996,-122 4935.5996,-86 5062.4004,-86 5062.4004,-122"/>
<text text-anchor="middle" x="4999" y="-99.8" font-family="Times,serif" font-size="14.00" fill="#000000">AutofocusDirective</text>
</g>
<!-- AutofocusDirective&#45;&gt;AppModule -->
<g id="edge4" class="edge">
<title>AutofocusDirective&#45;&gt;AppModule</title>
<path fill="none" stroke="#000000" d="M4999,-122.2921C4999,-144.2057 4999,-178 4999,-178 4999,-178 3019.9541,-178 3019.9541,-178"/>
<polygon fill="#000000" stroke="#000000" points="3019.9542,-174.5001 3009.9541,-178 3019.9541,-181.5001 3019.9542,-174.5001"/>
</g>
<!-- CallbackPipe -->
<g id="node5" class="node">
<title>CallbackPipe</title>
<polygon fill="#ffffb3" stroke="#000000" points="4917.1501,-122 4826.8499,-122 4826.8499,-86 4917.1501,-86 4917.1501,-122"/>
<text text-anchor="middle" x="4872" y="-99.8" font-family="Times,serif" font-size="14.00" fill="#000000">CallbackPipe</text>
</g>
<!-- CallbackPipe&#45;&gt;AppModule -->
<g id="edge5" class="edge">
<title>CallbackPipe&#45;&gt;AppModule</title>
<path fill="none" stroke="#000000" d="M4872,-122.1686C4872,-143.498 4872,-176 4872,-176 4872,-176 3019.9868,-176 3019.9868,-176"/>
<polygon fill="#000000" stroke="#000000" points="3019.9868,-172.5001 3009.9868,-176 3019.9867,-179.5001 3019.9868,-172.5001"/>
</g>
<!-- DialogAddPeerComponent -->
<g id="node6" class="node">
<title>DialogAddPeerComponent</title>
<polygon fill="#ffffb3" stroke="#000000" points="4808.4143,-122 4639.5857,-122 4639.5857,-86 4808.4143,-86 4808.4143,-122"/>
<text text-anchor="middle" x="4724" y="-99.8" font-family="Times,serif" font-size="14.00" fill="#000000">DialogAddPeerComponent</text>
</g>
<!-- DialogAddPeerComponent&#45;&gt;AppModule -->
<g id="edge6" class="edge">
<title>DialogAddPeerComponent&#45;&gt;AppModule</title>
<path fill="none" stroke="#000000" d="M4724,-122.0267C4724,-142.7672 4724,-174 4724,-174 4724,-174 3019.675,-174 3019.675,-174"/>
<polygon fill="#000000" stroke="#000000" points="3019.675,-170.5001 3009.675,-174 3019.675,-177.5001 3019.675,-170.5001"/>
</g>
<!-- DialogAddTokenComponent -->
<g id="node7" class="node">
<title>DialogAddTokenComponent</title>
<polygon fill="#ffffb3" stroke="#000000" points="4621.8089,-122 4442.1911,-122 4442.1911,-86 4621.8089,-86 4621.8089,-122"/>
<text text-anchor="middle" x="4532" y="-99.8" font-family="Times,serif" font-size="14.00" fill="#000000">DialogAddTokenComponent</text>
</g>
<!-- DialogAddTokenComponent&#45;&gt;AppModule -->
<g id="edge7" class="edge">
<title>DialogAddTokenComponent&#45;&gt;AppModule</title>
<path fill="none" stroke="#000000" d="M4532,-122.2228C4532,-142.3652 4532,-172 4532,-172 4532,-172 3019.8332,-172 3019.8332,-172"/>
<polygon fill="#000000" stroke="#000000" points="3019.8333,-168.5001 3009.8332,-172 3019.8332,-175.5001 3019.8333,-168.5001"/>
</g>
<!-- DialogGetOrderComponent -->
<g id="node8" class="node">
<title>DialogGetOrderComponent</title>
<polygon fill="#ffffb3" stroke="#000000" points="4424.2892,-122 4251.7108,-122 4251.7108,-86 4424.2892,-86 4424.2892,-122"/>
<text text-anchor="middle" x="4338" y="-99.8" font-family="Times,serif" font-size="14.00" fill="#000000">DialogGetOrderComponent</text>
</g>
<!-- DialogGetOrderComponent&#45;&gt;AppModule -->
<g id="edge8" class="edge">
<title>DialogGetOrderComponent&#45;&gt;AppModule</title>
<path fill="none" stroke="#000000" d="M4338,-122.1061C4338,-141.3391 4338,-169 4338,-169 4338,-169 3019.7494,-169 3019.7494,-169"/>
<polygon fill="#000000" stroke="#000000" points="3019.7495,-165.5001 3009.7494,-169 3019.7494,-172.5001 3019.7495,-165.5001"/>
</g>
<!-- DialogSendOfflineComponent -->
<g id="node9" class="node">
<title>DialogSendOfflineComponent</title>
<polygon fill="#ffffb3" stroke="#000000" points="4233.8557,-122 4046.1443,-122 4046.1443,-86 4233.8557,-86 4233.8557,-122"/>
<text text-anchor="middle" x="4140" y="-99.8" font-family="Times,serif" font-size="14.00" fill="#000000">DialogSendOfflineComponent</text>
</g>
<!-- DialogSendOfflineComponent&#45;&gt;AppModule -->
<g id="edge9" class="edge">
<title>DialogSendOfflineComponent&#45;&gt;AppModule</title>
<path fill="none" stroke="#000000" d="M4140,-122.2222C4140,-140.8285 4140,-167 4140,-167 4140,-167 3019.7121,-167 3019.7121,-167"/>
<polygon fill="#000000" stroke="#000000" points="3019.7121,-163.5001 3009.7121,-167 3019.7121,-170.5001 3019.7121,-163.5001"/>
</g>
<!-- ErrorComponent -->
<g id="node10" class="node">
<title>ErrorComponent</title>
<polygon fill="#ffffb3" stroke="#000000" points="4028.3669,-122 3917.6331,-122 3917.6331,-86 4028.3669,-86 4028.3669,-122"/>
<text text-anchor="middle" x="3973" y="-99.8" font-family="Times,serif" font-size="14.00" fill="#000000">ErrorComponent</text>
</g>
<!-- ErrorComponent&#45;&gt;AppModule -->
<g id="edge10" class="edge">
<title>ErrorComponent&#45;&gt;AppModule</title>
<path fill="none" stroke="#000000" d="M3973,-122.302C3973,-140.2699 3973,-165 3973,-165 3973,-165 3019.9041,-165 3019.9041,-165"/>
<polygon fill="#000000" stroke="#000000" points="3019.9041,-161.5001 3009.9041,-165 3019.9041,-168.5001 3019.9041,-161.5001"/>
</g>
<!-- FindIntentsComponent -->
<g id="node11" class="node">
<title>FindIntentsComponent</title>
<polygon fill="#ffffb3" stroke="#000000" points="3899.6066,-122 3754.3934,-122 3754.3934,-86 3899.6066,-86 3899.6066,-122"/>
<text text-anchor="middle" x="3827" y="-99.8" font-family="Times,serif" font-size="14.00" fill="#000000">FindIntentsComponent</text>
</g>
<!-- FindIntentsComponent&#45;&gt;AppModule -->
<g id="edge11" class="edge">
<title>FindIntentsComponent&#45;&gt;AppModule</title>
<path fill="none" stroke="#000000" d="M3827,-122.0225C3827,-139.3734 3827,-163 3827,-163 3827,-163 3019.7217,-163 3019.7217,-163"/>
<polygon fill="#000000" stroke="#000000" points="3019.7217,-159.5001 3009.7217,-163 3019.7216,-166.5001 3019.7217,-159.5001"/>
</g>
<!-- FocusDirective -->
<g id="node12" class="node">
<title>FocusDirective</title>
<polygon fill="#ffffb3" stroke="#000000" points="3736.5257,-122 3635.4743,-122 3635.4743,-86 3736.5257,-86 3736.5257,-122"/>
<text text-anchor="middle" x="3686" y="-99.8" font-family="Times,serif" font-size="14.00" fill="#000000">FocusDirective</text>
</g>
<!-- FocusDirective&#45;&gt;AppModule -->
<g id="edge12" class="edge">
<title>FocusDirective&#45;&gt;AppModule</title>
<path fill="none" stroke="#000000" d="M3686,-122.027C3686,-138.3976 3686,-160 3686,-160 3686,-160 3019.7062,-160 3019.7062,-160"/>
<polygon fill="#000000" stroke="#000000" points="3019.7062,-156.5001 3009.7062,-160 3019.7061,-163.5001 3019.7062,-156.5001"/>
</g>
<!-- GetOrderComponent -->
<g id="node13" class="node">
<title>GetOrderComponent</title>
<polygon fill="#ffffb3" stroke="#000000" points="3617.1867,-122 3482.8133,-122 3482.8133,-86 3617.1867,-86 3617.1867,-122"/>
<text text-anchor="middle" x="3550" y="-99.8" font-family="Times,serif" font-size="14.00" fill="#000000">GetOrderComponent</text>
</g>
<!-- GetOrderComponent&#45;&gt;AppModule -->
<g id="edge13" class="edge">
<title>GetOrderComponent&#45;&gt;AppModule</title>
<path fill="none" stroke="#000000" d="M3550,-122.2819C3550,-137.9478 3550,-158 3550,-158 3550,-158 3019.856,-158 3019.856,-158"/>
<polygon fill="#000000" stroke="#000000" points="3019.856,-154.5001 3009.856,-158 3019.856,-161.5001 3019.856,-154.5001"/>
</g>
<!-- InitialPageComponent -->
<g id="node14" class="node">
<title>InitialPageComponent</title>
<polygon fill="#ffffb3" stroke="#000000" points="3464.9818,-122 3323.0182,-122 3323.0182,-86 3464.9818,-86 3464.9818,-122"/>
<text text-anchor="middle" x="3394" y="-99.8" font-family="Times,serif" font-size="14.00" fill="#000000">InitialPageComponent</text>
</g>
<!-- InitialPageComponent&#45;&gt;AppModule -->
<g id="edge14" class="edge">
<title>InitialPageComponent&#45;&gt;AppModule</title>
<path fill="none" stroke="#000000" d="M3394,-122.1871C3394,-137.1824 3394,-156 3394,-156 3394,-156 3020.0124,-156 3020.0124,-156"/>
<polygon fill="#000000" stroke="#000000" points="3020.0124,-152.5001 3010.0124,-156 3020.0123,-159.5001 3020.0124,-152.5001"/>
</g>
<!-- MainframeComponent -->
<g id="node15" class="node">
<title>MainframeComponent</title>
<polygon fill="#ffffb3" stroke="#000000" points="3304.524,-122 3161.476,-122 3161.476,-86 3304.524,-86 3304.524,-122"/>
<text text-anchor="middle" x="3233" y="-99.8" font-family="Times,serif" font-size="14.00" fill="#000000">MainframeComponent</text>
</g>
<!-- MainframeComponent&#45;&gt;AppModule -->
<g id="edge15" class="edge">
<title>MainframeComponent&#45;&gt;AppModule</title>
<path fill="none" stroke="#000000" d="M3233,-122.0511C3233,-136.373 3233,-154 3233,-154 3233,-154 3019.6978,-154 3019.6978,-154"/>
<polygon fill="#000000" stroke="#000000" points="3019.6978,-150.5001 3009.6978,-154 3019.6977,-157.5001 3019.6978,-150.5001"/>
</g>
<!-- MessageSystemComponent -->
<g id="node16" class="node">
<title>MessageSystemComponent</title>
<polygon fill="#ffffb3" stroke="#000000" points="3142.5336,-122 2971.4664,-122 2971.4664,-86 3142.5336,-86 3142.5336,-122"/>
<text text-anchor="middle" x="3057" y="-99.8" font-family="Times,serif" font-size="14.00" fill="#000000">MessageSystemComponent</text>
</g>
<!-- MessageSystemComponent&#45;&gt;AppModule -->
<g id="edge16" class="edge">
<title>MessageSystemComponent&#45;&gt;AppModule</title>
<path fill="none" stroke="#000000" d="M2990.5309,-122.1061C2990.5309,-122.1061 2990.5309,-140.991 2990.5309,-140.991"/>
<polygon fill="#000000" stroke="#000000" points="2987.0309,-140.9909 2990.5309,-150.991 2994.0309,-140.991 2987.0309,-140.9909"/>
</g>
<!-- MyAccountComponent -->
<g id="node17" class="node">
<title>MyAccountComponent</title>
<polygon fill="#ffffb3" stroke="#000000" points="2953.2035,-122 2804.7965,-122 2804.7965,-86 2953.2035,-86 2953.2035,-122"/>
<text text-anchor="middle" x="2879" y="-99.8" font-family="Times,serif" font-size="14.00" fill="#000000">MyAccountComponent</text>
</g>
<!-- MyAccountComponent&#45;&gt;AppModule -->
<g id="edge17" class="edge">
<title>MyAccountComponent&#45;&gt;AppModule</title>
<path fill="none" stroke="#000000" d="M2939.6368,-122.1061C2939.6368,-122.1061 2939.6368,-140.991 2939.6368,-140.991"/>
<polygon fill="#000000" stroke="#000000" points="2936.1368,-140.9909 2939.6368,-150.991 2943.1368,-140.991 2936.1368,-140.9909"/>
</g>
<!-- RoundPipe -->
<g id="node18" class="node">
<title>RoundPipe</title>
<polygon fill="#ffffb3" stroke="#000000" points="2787.2247,-122 2708.7753,-122 2708.7753,-86 2787.2247,-86 2787.2247,-122"/>
<text text-anchor="middle" x="2748" y="-99.8" font-family="Times,serif" font-size="14.00" fill="#000000">RoundPipe</text>
</g>
<!-- RoundPipe&#45;&gt;AppModule -->
<g id="edge18" class="edge">
<title>RoundPipe&#45;&gt;AppModule</title>
<path fill="none" stroke="#000000" d="M2748,-122.0511C2748,-136.373 2748,-154 2748,-154 2748,-154 2916.1018,-154 2916.1018,-154"/>
<polygon fill="#000000" stroke="#000000" points="2916.1019,-157.5001 2926.1018,-154 2916.1018,-150.5001 2916.1019,-157.5001"/>
</g>
<!-- SetIntentsComponent -->
<g id="node19" class="node">
<title>SetIntentsComponent</title>
<polygon fill="#ffffb3" stroke="#000000" points="2690.8216,-122 2553.1784,-122 2553.1784,-86 2690.8216,-86 2690.8216,-122"/>
<text text-anchor="middle" x="2622" y="-99.8" font-family="Times,serif" font-size="14.00" fill="#000000">SetIntentsComponent</text>
</g>
<!-- SetIntentsComponent&#45;&gt;AppModule -->
<g id="edge19" class="edge">
<title>SetIntentsComponent&#45;&gt;AppModule</title>
<path fill="none" stroke="#000000" d="M2622,-122.1871C2622,-137.1824 2622,-156 2622,-156 2622,-156 2916.2643,-156 2916.2643,-156"/>
<polygon fill="#000000" stroke="#000000" points="2916.2644,-159.5001 2926.2643,-156 2916.2643,-152.5001 2916.2644,-159.5001"/>
</g>
<!-- VerifyUserComponent -->
<g id="node20" class="node">
<title>VerifyUserComponent</title>
<polygon fill="#ffffb3" stroke="#000000" points="2535.2921,-122 2390.7079,-122 2390.7079,-86 2535.2921,-86 2535.2921,-122"/>
<text text-anchor="middle" x="2463" y="-99.8" font-family="Times,serif" font-size="14.00" fill="#000000">VerifyUserComponent</text>
</g>
<!-- VerifyUserComponent&#45;&gt;AppModule -->
<g id="edge20" class="edge">
<title>VerifyUserComponent&#45;&gt;AppModule</title>
<path fill="none" stroke="#000000" d="M2463,-122.2819C2463,-137.9478 2463,-158 2463,-158 2463,-158 2916.2441,-158 2916.2441,-158"/>
<polygon fill="#000000" stroke="#000000" points="2916.2441,-161.5001 2926.2441,-158 2916.2441,-154.5001 2916.2441,-161.5001"/>
</g>
<!-- WhosOnlineComponent -->
<g id="node21" class="node">
<title>WhosOnlineComponent</title>
<polygon fill="#ffffb3" stroke="#000000" points="2373.094,-122 2220.906,-122 2220.906,-86 2373.094,-86 2373.094,-122"/>
<text text-anchor="middle" x="2297" y="-99.8" font-family="Times,serif" font-size="14.00" fill="#000000">WhosOnlineComponent</text>
</g>
<!-- WhosOnlineComponent&#45;&gt;AppModule -->
<g id="edge21" class="edge">
<title>WhosOnlineComponent&#45;&gt;AppModule</title>
<path fill="none" stroke="#000000" d="M2297,-122.027C2297,-138.3976 2297,-160 2297,-160 2297,-160 2916.2795,-160 2916.2795,-160"/>
<polygon fill="#000000" stroke="#000000" points="2916.2795,-163.5001 2926.2795,-160 2916.2794,-156.5001 2916.2795,-163.5001"/>
</g>
<!-- AppComponent  -->
<g id="node24" class="node">
<title>AppComponent </title>
<polygon fill="#80b1d3" stroke="#000000" points="3022.439,-252 2913.561,-252 2913.561,-216 3022.439,-216 3022.439,-252"/>
<text text-anchor="middle" x="2968" y="-229.8" font-family="Times,serif" font-size="14.00" fill="#000000">AppComponent </text>
</g>
<!-- AppModule&#45;&gt;AppComponent  -->
<g id="edge23" class="edge">
<title>AppModule&#45;&gt;AppComponent </title>
<path fill="none" stroke="#000000" stroke-dasharray="1,5" d="M2968,-187.1061C2968,-187.1061 2968,-205.991 2968,-205.991"/>
<polygon fill="#000000" stroke="#000000" points="2964.5001,-205.9909 2968,-215.991 2971.5001,-205.991 2964.5001,-205.9909"/>
</g>
<!-- NgMaterialModule -->
<g id="node23" class="node">
<title>NgMaterialModule</title>
<polygon fill="#8dd3c7" stroke="#000000" points="2197.0772,-122 2194.0772,-126 2173.0772,-126 2170.0772,-122 2072.9228,-122 2072.9228,-86 2197.0772,-86 2197.0772,-122"/>
<text text-anchor="middle" x="2135" y="-99.8" font-family="Times,serif" font-size="14.00" fill="#000000">NgMaterialModule</text>
</g>
<!-- NgMaterialModule&#45;&gt;AppModule -->
<g id="edge22" class="edge">
<title>NgMaterialModule&#45;&gt;AppModule</title>
<path fill="none" stroke="#000000" d="M2135,-122.0225C2135,-139.3734 2135,-163 2135,-163 2135,-163 2916.1205,-163 2916.1205,-163"/>
<polygon fill="#000000" stroke="#000000" points="2916.1206,-166.5001 2926.1205,-163 2916.1205,-159.5001 2916.1206,-166.5001"/>
</g>
<!-- ColumnSpaceObserverService -->
<g id="node25" class="node">
<title>ColumnSpaceObserverService</title>
<ellipse fill="#fdb462" stroke="#000000" cx="1919" cy="-104" rx="129.6143" ry="18"/>
<text text-anchor="middle" x="1919" y="-99.8" font-family="Times,serif" font-size="14.00" fill="#000000">ColumnSpaceObserverService</text>
</g>
<!-- ColumnSpaceObserverService&#45;&gt;AppModule -->
<g id="edge24" class="edge">
<title>ColumnSpaceObserverService&#45;&gt;AppModule</title>
<path fill="none" stroke="#000000" d="M1919,-122.302C1919,-140.2699 1919,-165 1919,-165 1919,-165 2916.2306,-165 2916.2306,-165"/>
<polygon fill="#000000" stroke="#000000" points="2916.2307,-168.5001 2926.2306,-165 2916.2306,-161.5001 2916.2307,-168.5001"/>
</g>
<!-- ConnectWeb3Service -->
<g id="node26" class="node">
<title>ConnectWeb3Service</title>
<ellipse fill="#fdb462" stroke="#000000" cx="1676" cy="-104" rx="95.4675" ry="18"/>
<text text-anchor="middle" x="1676" y="-99.8" font-family="Times,serif" font-size="14.00" fill="#000000">ConnectWeb3Service</text>
</g>
<!-- ConnectWeb3Service&#45;&gt;AppModule -->
<g id="edge25" class="edge">
<title>ConnectWeb3Service&#45;&gt;AppModule</title>
<path fill="none" stroke="#000000" d="M1676,-122.2222C1676,-140.8285 1676,-167 1676,-167 1676,-167 2916.1125,-167 2916.1125,-167"/>
<polygon fill="#000000" stroke="#000000" points="2916.1125,-170.5001 2926.1125,-167 2916.1125,-163.5001 2916.1125,-170.5001"/>
</g>
<!-- FirebaseService -->
<g id="node27" class="node">
<title>FirebaseService</title>
<ellipse fill="#fdb462" stroke="#000000" cx="1490" cy="-104" rx="72.9063" ry="18"/>
<text text-anchor="middle" x="1490" y="-99.8" font-family="Times,serif" font-size="14.00" fill="#000000">FirebaseService</text>
</g>
<!-- FirebaseService&#45;&gt;AppModule -->
<g id="edge26" class="edge">
<title>FirebaseService&#45;&gt;AppModule</title>
<path fill="none" stroke="#000000" d="M1490,-122.1061C1490,-141.3391 1490,-169 1490,-169 1490,-169 2916.1471,-169 2916.1471,-169"/>
<polygon fill="#000000" stroke="#000000" points="2916.1472,-172.5001 2926.1471,-169 2916.1471,-165.5001 2916.1472,-172.5001"/>
</g>
<!-- GetOrderService -->
<g id="node28" class="node">
<title>GetOrderService</title>
<ellipse fill="#fdb462" stroke="#000000" cx="1323" cy="-104" rx="76.3995" ry="18"/>
<text text-anchor="middle" x="1323" y="-99.8" font-family="Times,serif" font-size="14.00" fill="#000000">GetOrderService</text>
</g>
<!-- GetOrderService&#45;&gt;AppModule -->
<g id="edge27" class="edge">
<title>GetOrderService&#45;&gt;AppModule</title>
<path fill="none" stroke="#000000" d="M1323,-122.2228C1323,-142.3652 1323,-172 1323,-172 1323,-172 2916.0999,-172 2916.0999,-172"/>
<polygon fill="#000000" stroke="#000000" points="2916.0999,-175.5001 2926.0999,-172 2916.0999,-168.5001 2916.0999,-175.5001"/>
</g>
<!-- MessagingService -->
<g id="node29" class="node">
<title>MessagingService</title>
<ellipse fill="#fdb462" stroke="#000000" cx="1147" cy="-104" rx="81.6596" ry="18"/>
<text text-anchor="middle" x="1147" y="-99.8" font-family="Times,serif" font-size="14.00" fill="#000000">MessagingService</text>
</g>
<!-- MessagingService&#45;&gt;AppModule -->
<g id="edge28" class="edge">
<title>MessagingService&#45;&gt;AppModule</title>
<path fill="none" stroke="#000000" d="M1147,-122.0267C1147,-142.7672 1147,-174 1147,-174 1147,-174 2916.1071,-174 2916.1071,-174"/>
<polygon fill="#000000" stroke="#000000" points="2916.1071,-177.5001 2926.1071,-174 2916.1071,-170.5001 2916.1071,-177.5001"/>
</g>
<!-- OrderRequestsService -->
<g id="node30" class="node">
<title>OrderRequestsService</title>
<ellipse fill="#fdb462" stroke="#000000" cx="950" cy="-104" rx="97.2471" ry="18"/>
<text text-anchor="middle" x="950" y="-99.8" font-family="Times,serif" font-size="14.00" fill="#000000">OrderRequestsService</text>
</g>
<!-- OrderRequestsService&#45;&gt;AppModule -->
<g id="edge29" class="edge">
<title>OrderRequestsService&#45;&gt;AppModule</title>
<path fill="none" stroke="#000000" d="M950,-122.1686C950,-143.498 950,-176 950,-176 950,-176 2916.3144,-176 2916.3144,-176"/>
<polygon fill="#000000" stroke="#000000" points="2916.3145,-179.5001 2926.3144,-176 2916.3144,-172.5001 2916.3145,-179.5001"/>
</g>
<!-- RouterWebsocketActivatedService -->
<g id="node31" class="node">
<title>RouterWebsocketActivatedService</title>
<ellipse fill="#fdb462" stroke="#000000" cx="688" cy="-104" rx="146.9277" ry="18"/>
<text text-anchor="middle" x="688" y="-99.8" font-family="Times,serif" font-size="14.00" fill="#000000">RouterWebsocketActivatedService</text>
</g>
<!-- RouterWebsocketActivatedService&#45;&gt;AppModule -->
<g id="edge30" class="edge">
<title>RouterWebsocketActivatedService&#45;&gt;AppModule</title>
<path fill="none" stroke="#000000" d="M688,-122.2921C688,-144.2057 688,-178 688,-178 688,-178 2915.9866,-178 2915.9866,-178"/>
<polygon fill="#000000" stroke="#000000" points="2915.9866,-181.5001 2925.9866,-178 2915.9866,-174.5001 2915.9866,-181.5001"/>
</g>
<!-- TokenService -->
<g id="node32" class="node">
<title>TokenService</title>
<ellipse fill="#fdb462" stroke="#000000" cx="459" cy="-104" rx="64.8273" ry="18"/>
<text text-anchor="middle" x="459" y="-99.8" font-family="Times,serif" font-size="14.00" fill="#000000">TokenService</text>
</g>
<!-- TokenService&#45;&gt;AppModule -->
<g id="edge31" class="edge">
<title>TokenService&#45;&gt;AppModule</title>
<path fill="none" stroke="#000000" d="M459,-122.2479C459,-145.0179 459,-181 459,-181 459,-181 2916.2859,-181 2916.2859,-181"/>
<polygon fill="#000000" stroke="#000000" points="2916.286,-184.5001 2926.2859,-181 2916.2859,-177.5001 2916.286,-184.5001"/>
</g>
<!-- UserOnlineService -->
<g id="node33" class="node">
<title>UserOnlineService</title>
<ellipse fill="#fdb462" stroke="#000000" cx="292" cy="-104" rx="84.5054" ry="18"/>
<text text-anchor="middle" x="292" y="-99.8" font-family="Times,serif" font-size="14.00" fill="#000000">UserOnlineService</text>
</g>
<!-- UserOnlineService&#45;&gt;AppModule -->
<g id="edge32" class="edge">
<title>UserOnlineService&#45;&gt;AppModule</title>
<path fill="none" stroke="#000000" d="M292,-122.3228C292,-145.6602 292,-183 292,-183 292,-183 2916.2354,-183 2916.2354,-183"/>
<polygon fill="#000000" stroke="#000000" points="2916.2354,-186.5001 2926.2354,-183 2916.2353,-179.5001 2916.2354,-186.5001"/>
</g>
<!-- WebsocketService -->
<g id="node34" class="node">
<title>WebsocketService</title>
<ellipse fill="#fdb462" stroke="#000000" cx="107" cy="-104" rx="82.7839" ry="18"/>
<text text-anchor="middle" x="107" y="-99.8" font-family="Times,serif" font-size="14.00" fill="#000000">WebsocketService</text>
</g>
<!-- WebsocketService&#45;&gt;AppModule -->
<g id="edge33" class="edge">
<title>WebsocketService&#45;&gt;AppModule</title>
<path fill="none" stroke="#000000" d="M107,-122.3802C107,-146.2785 107,-185 107,-185 107,-185 2916.1753,-185 2916.1753,-185"/>
<polygon fill="#000000" stroke="#000000" points="2916.1753,-188.5001 2926.1753,-185 2916.1752,-181.5001 2916.1753,-188.5001"/>
</g>
</g>
</svg>
